<?xml version="1.0" encoding="UTF-8"?> <svg xmlns="http://www.w3.org/2000/svg" xmlns:xlink="http://www.w3.org/1999/xlink" viewBox="0 0 660 720" width="660" height="720"><defs><style>.cls-1{isolation:isolate;}.cls-2{fill:none;}.cls-3{fill:url(#ÅÂÁ_Ï_ÌÌ_È_ËÂÌÚ_4);}.cls-4{fill:url(#ÅÂÁ_Ï_ÌÌ_È_ËÂÌÚ_4-2);}.cls-5{fill:#48d0d3;}.cls-6{fill:#0094aa;}.cls-7{fill:#f9ca24;}.cls-8{fill:url(#linear-gradient);}.cls-9{fill:#e0e8ee;}.cls-10{fill:#dba585;}.cls-11{fill:#363957;}.cls-12{fill:#525368;}.cls-13{fill:#6a6b87;}.cls-14{fill:#26283a;}.cls-15{fill:#2e3048;}.cls-16{fill:#eecaa2;}.cls-17{fill:#5e5e5b;}.cls-18{fill:#c59661;}.cls-19{fill:#1f140f;}.cls-20{fill:#997761;}.cls-21{fill:#46688d;}.cls-22{fill:#e6d8d1;}.cls-23{fill:#0e2549;}.cls-24{fill:#2e4254;}.cls-25,.cls-31{fill:#fff;}.cls-25{stroke:#1f140f;stroke-miterlimit:10;stroke-width:0.97px;}.cls-26{fill:#343d77;}.cls-27{fill:#e7b96b;}.cls-28{fill:#e09637;}.cls-29{fill:#f7f7f7;mix-blend-mode:soft-light;}.cls-30{fill:#2d374b;}.cls-32{opacity:0.51;}</style><linearGradient id="ÅÂÁ_Ï_ÌÌ_È_ËÂÌÚ_4" x1="442.61" y1="1802.29" x2="147.38" y2="1290.94" gradientTransform="matrix(1, 0, 0, -1, 32.71, 1843.93)" gradientUnits="userSpaceOnUse"><stop offset="0" stop-color="#fff"></stop><stop offset="1" stop-color="#f6e9d4"></stop></linearGradient><linearGradient id="ÅÂÁ_Ï_ÌÌ_È_ËÂÌÚ_4-2" x1="438.94" y1="1463.97" x2="106.3" y2="1796.62" xlink:href="#ÅÂÁ_Ï_ÌÌ_È_ËÂÌÚ_4"></linearGradient><linearGradient id="linear-gradient" x1="359.7" y1="153.45" x2="359.7" y2="286.29" gradientUnits="userSpaceOnUse"><stop offset="0" stop-color="#e0e8ee"></stop><stop offset="1" stop-color="#fcf8f4"></stop></linearGradient></defs><g class="cls-1"><g id="_Layer_" data-name="&lt;Layer&gt;"><rect class="cls-2" width="660" height="720"></rect><path class="cls-3" d="M552,360.28c-58,10.94-85.68,53.65-119.7,82.41-40.05,33.86-88.73,15.09-130.34,9.12-74.79-10.73-100.21,68.06-182.51,57.62C40.71,499.44,10,400.77,58.93,344.28S106.3,270.72,95,230.76,64,116,142.8,109.23c67.76-5.81,106.93-22.74,136.75-52.17S419.24-53.39,470.48,69.69c24.49,58.82,39.26,79.51,94.27,94.6s93.47,56.62,95.19,103.65C661.57,312.47,629.51,345.66,552,360.28Z" transform="translate(0)"></path><path class="cls-4" d="M301.77,52.6C348.3,86.55,400.07,91,454.68,80.17s100.29-12.8,136,38.4,22.4,147.58-74.47,171.34c-92.35,22.65-107.76,96.93-124.12,149.68-19.86,64-79.44,90.59-141,77.79s-78.45-58.1-102.28-128-51.93-78.55-93.33-99.46c-50.71-25.6-93.77-103-1-146.72C175.66,86.08,166.48-46.12,301.77,52.6Z" transform="translate(0)"></path><path class="cls-5" d="M249.9,286.78a48.57,48.57,0,0,0-5.21-12.56l5.3-8-7.35-7.36-7.36-7.36-8,5.3a49,49,0,0,0-12.56-5.21l-1.88-9.38H192l-1.88,9.38a49,49,0,0,0-12.56,5.21l-8-5.3-7.36,7.36-7.35,7.36,5.3,8A48.57,48.57,0,0,0,155,286.78l-9.38,1.89v20.81l9.38,1.89a48.42,48.42,0,0,0,5.21,12.56l-5.3,8,7.35,7.35,7.36,7.36,8-5.3a49,49,0,0,0,12.56,5.21l1.88,9.38h20.82l1.88-9.38a49,49,0,0,0,12.56-5.21l8,5.3,7.36-7.36,7.35-7.35-5.3-8a48.42,48.42,0,0,0,5.21-12.56l9.38-1.89V288.67Zm-47.45,48.76a36.46,36.46,0,1,1,36.46-36.46A36.46,36.46,0,0,1,202.45,335.54Z" transform="translate(0)"></path><path class="cls-5" d="M168.31,217.58A31.11,31.11,0,0,0,165,209.5l3.41-5.14-4.74-4.73-4.73-4.73-5.13,3.41a31.4,31.4,0,0,0-8.08-3.35l-1.22-6H131.08l-1.21,6a31.11,31.11,0,0,0-8.08,3.35l-5.13-3.41-4.74,4.73-4.73,4.73,3.41,5.14a31.11,31.11,0,0,0-3.35,8.08l-6,1.21v13.39l6,1.22a31.4,31.4,0,0,0,3.35,8.08l-3.41,5.13,4.73,4.73,4.74,4.74,5.13-3.42a31.49,31.49,0,0,0,8.08,3.36l1.21,6h13.39l1.22-6a31.79,31.79,0,0,0,8.08-3.36l5.13,3.42,4.73-4.74,4.74-4.73L165,241.48a31.4,31.4,0,0,0,3.35-8.08l6-1.22V218.79Zm-30.53,31.36a23.46,23.46,0,1,1,23.46-23.46A23.46,23.46,0,0,1,137.78,248.94Z" transform="translate(0)"></path><rect class="cls-6" x="188.25" y="294.35" width="280.55" height="387.94" rx="34.39" transform="translate(657.06 976.64) rotate(180)"></rect><polygon class="cls-7" points="281.08 218.76 268.97 211.77 268.97 216.38 250.97 216.38 250.97 221.15 268.97 221.15 268.97 225.75 281.08 218.76"></polygon><polygon class="cls-7" points="250.97 203.43 263.08 210.42 263.08 205.81 281.08 205.81 281.08 201.05 263.08 201.05 263.08 196.44 250.97 203.43"></polygon><path class="cls-7" d="M456.55,218.2a6.75,6.75,0,0,1-3.9-1.57,5.08,5.08,0,0,1-1.86-3.87,30.54,30.54,0,0,0-1.84-7.89,13.58,13.58,0,1,1,16.27.48,29,29,0,0,0-1.8,7.5c0,3-2.88,5.4-6.35,5.37Zm1.8-36.39a12.47,12.47,0,0,0-8.59,22.28l.12.1.06.15a31.64,31.64,0,0,1,2,8.36v.05a4,4,0,0,0,1.47,3,5.74,5.74,0,0,0,3.7,1.32c2.87,0,5.22-1.91,5.24-4.29v0a30.88,30.88,0,0,1,1.93-8l.07-.17.14-.1a12.47,12.47,0,0,0-6.1-22.72Z" transform="translate(0)"></path><polygon class="cls-7" points="454.04 213.57 452.26 198.77 455.34 201.32 457.26 199.2 458.91 201.19 461.79 198.75 460.04 213.57 458.94 213.44 460.36 201.42 458.77 202.76 457.22 200.9 455.45 202.86 453.69 201.4 455.14 213.44 454.04 213.57"></polygon><rect class="cls-7" x="452.24" y="216.87" width="9.63" height="3.88" transform="translate(1.5 -3.1) rotate(0.39)"></rect><rect class="cls-7" x="450.71" y="212.9" width="12.73" height="6.25" transform="translate(1.46 -3.06) rotate(0.38)"></rect><path class="cls-8" d="M513.7,242c-61.18,4-62.34,73.51-62.34,73.51V646.81H205.7V315.55s-.28-69.32,62.65-73.51Z" transform="translate(0)"></path><path class="cls-9" d="M310.88,539.37H237.46V504.26h73.42Zm-72.43-1h71.44V505.25H238.45Z" transform="translate(0)"></path><rect class="cls-5" x="237.96" y="328.58" width="168.73" height="14.89"></rect><rect class="cls-5" x="237.96" y="363.01" width="144.07" height="10.55"></rect><rect class="cls-5" x="237.96" y="390.84" width="72.42" height="15.66"></rect><rect class="cls-5" x="331.79" y="390.84" width="74.91" height="15.66"></rect><rect class="cls-5" x="237.96" y="421.01" width="115.38" height="11.17"></rect><rect class="cls-5" x="237.96" y="448.92" width="130" height="6.2"></rect><rect class="cls-5" x="237.96" y="476.84" width="156.33" height="6.2"></rect><rect class="cls-5" x="328.53" y="504.75" width="65.76" height="8.06"></rect><rect class="cls-5" x="328.53" y="521.81" width="46.61" height="8.06"></rect><rect class="cls-5" x="237.96" y="560.58" width="128.84" height="6.2"></rect><rect class="cls-5" x="237.96" y="588.5" width="74.05" height="6.2"></rect><path class="cls-5" d="M426.34,604.89H380.05V558.6h46.29Zm-41.95-4.34H422V562.94H384.39Z" transform="translate(0)"></path><polygon class="cls-5" points="403.92 591.44 387.65 576.09 392.61 570.83 404.25 581.8 429.7 560.89 434.3 566.48 403.92 591.44"></polygon><polygon class="cls-7" points="431.08 405.22 360.92 405.22 360.92 457.88 360.92 468.98 371.63 457.88 431.08 457.88 431.08 405.22"></polygon><polygon class="cls-7" points="89.7 407.94 159.85 407.94 159.85 460.6 159.85 471.69 149.14 460.6 89.7 460.6 89.7 407.94"></polygon><path class="cls-10" d="M483.36,607.07a32.47,32.47,0,0,1-3.66.54c-1.19,0-6.66-2.45-8.41-2.21s-13.18,5.09-13.7,5.45.24,1.13.24,1.13l26.24.31Z" transform="translate(0)"></path><rect class="cls-11" x="448.58" y="611.92" width="43.64" height="4" transform="translate(936.13 1231.38) rotate(-179.57)"></rect><rect class="cls-11" x="422.26" y="592.3" width="43.64" height="4" transform="translate(5.63 1192.76) rotate(-107)"></rect><path class="cls-12" d="M528.24,696.49l1.69,3.64s7.08-2.64,7.12-2.73-1.95-5-1.95-5Z" transform="translate(0)"></path><path class="cls-13" d="M467.54,696.41l-2,5.73s7.77,1.72,8.9,1.63c.1,0,1.48-6.49,1.48-6.49Z" transform="translate(0)"></path><path class="cls-14" d="M475.35,702.1s-5.43-1.48-5.59-1.72-2.16-1.58-3.19-1.41-1.12,1.41-2.14,1.66a106.11,106.11,0,0,0-10.07,3.44c-1.11.65-6.36-1.27-7.37.1s-2,4.94,6.26,6.17,17.1,4.92,19.07,4.42S475.66,704.3,475.35,702.1Z" transform="translate(0)"></path><path class="cls-14" d="M537.61,696.43s-5,2.15-5.3,2.07-2.6.09-3.28.84,0,1.75-.65,2.56-4.22,5.56-5.27,6.66c-.86.9-5.58,1.74-7.09,3.32-1.14,1.19.2,6,8.22,3.68,7.81-2.22,17.49-6.06,18.69-7.64S539.17,697.93,537.61,696.43Z" transform="translate(0)"></path><path class="cls-15" d="M532.44,625s-22.16,9.86-26.85,13.22-15,9.58-15.32,11.1-2.38,0,1.27,7.62,20.88,25.84,22.5,27.83,13.64,14.46,13.64,14.46l9-6.77s-17.3-25.43-19.8-29.17-3.63-4.29-2.15-5.94,7.39-1.63,37.83-14.23c3-1.26,11.52-4.18,12.64-8.26,2-7.38.29-16.73-7.89-20.85S532.44,625,532.44,625Z" transform="translate(0)"></path><path class="cls-10" d="M521.9,553.66a3.12,3.12,0,0,1,.63,1.07,24.43,24.43,0,0,1,1,2.91c1,3.51,1.92,8,1.92,8s12.68-10.56,10.89-11.23-3.12-3.75-3.12-3.75S520.57,552.48,521.9,553.66Z" transform="translate(0)"></path><path class="cls-15" d="M532.79,621s-22.89,5.38-28.55,7.19-15.4,5-18,6.49c-1.39.79-3.51,2-6.06,10.25-2.88,9.38-9.46,35.75-11,39.86-.94,2.58-3.63,12.73-3.63,12.73l11.69,2s13.94-28,15.07-35.53c1.9-12.58,6.78-12.65,8.75-13.79s11.46,1,45.22-1.69c3.38-.27,12.6-.44,15-4.08,4.31-6.58,8.67-14.05,2-20.67S532.79,621,532.79,621Z" transform="translate(0)"></path><path class="cls-10" d="M517.43,527.17s-4,6.84-3.06,8.7-4.14,6.38-3.31,7.34,2.54,2.11,2.51,2.39S515,554.79,517,555s15.23-.49,16.33-4.65,4.35-13.26,5.11-15S531.52,520.63,517.43,527.17Z" transform="translate(0)"></path><path class="cls-16" d="M533.82,525.85a14.71,14.71,0,0,1,2.72,2.58c.87.41,6,3,4.94,5.72-1.44,3.71-7.25,13.66-7.74,14.7-.07.14-.07-.12,0-.68-.36-3.51-4.68-7.45-4.68-7.45l-2.31-1a6.72,6.72,0,0,0,.73-4.33c-2.61-2.8-11.29-5.81-11.29-5.81C517.41,517.16,528,521.53,533.82,525.85Z" transform="translate(0)"></path><path class="cls-10" d="M529.89,537.81a2.05,2.05,0,0,1,3.38,2c-.47,2.76-4.44,5-5.31,3.74S529.24,538.81,529.89,537.81Z" transform="translate(0)"></path><path class="cls-6" d="M536.32,554.43s16.06,9.36,19.69,25.71,10.18,45.05,10.29,48.45c0,0-21.74-10.46-33.51-7.58,0,0-7.41-26.64-11.31-32.93S523.37,567,523.37,567,528.91,558.12,536.32,554.43Z" transform="translate(0)"></path><path class="cls-17" d="M594.89,561.75l-12.94,38a3.43,3.43,0,0,0-.18.89l-3.1,49.92-54.13,1.21-15.77,57.4a6,6,0,0,0,.88,5.08,4.37,4.37,0,0,0,3,2c3.43.42,72.91,0,72.91,0v-2.88a2.62,2.62,0,0,0-2.65-2.59H518a3.52,3.52,0,0,1-2.76-1.29,2.26,2.26,0,0,1-.55-1.78c.28-1.83,14.15-48.6,14.15-48.6l52.33-.93a4.45,4.45,0,0,0,4.42-4.23l2.28-53.7a4.18,4.18,0,0,1,.16-1l10.58-36.3s1.11-2.53-.93-2.77A2.26,2.26,0,0,0,594.89,561.75Z" transform="translate(0)"></path><path class="cls-18" d="M524.26,652.78s0-4.14,5.64-4.43c6.52-.33,48.94-.63,48.94-.63l-.28,4.41Z" transform="translate(0)"></path><path class="cls-19" d="M498.05,619v1.94H405.86V619a3,3,0,0,1,2.7-3.26h86.79A3,3,0,0,1,498.05,619Z" transform="translate(0)"></path><path class="cls-19" d="M438.94,715.24H411.08v-4.46h23.41a4.46,4.46,0,0,1,4.45,4.46Z" transform="translate(0)"></path><rect class="cls-19" x="412.85" y="620.93" width="3.68" height="94.31"></rect><rect class="cls-19" x="420.25" y="620.93" width="3.68" height="94.31"></rect><path class="cls-20" d="M522.53,554.73a24.43,24.43,0,0,1,1,2.91c1.9-.79,5.52-4.13,5.63-4.24A52.37,52.37,0,0,1,522.53,554.73Z" transform="translate(0)"></path><path class="cls-19" d="M458.93,620.93H393.07V619a3.37,3.37,0,0,1,3.46-3.26h52.09Z" transform="translate(0)"></path><path class="cls-6" d="M529.27,567.09s-3.83,5.42-6.19,9.53c-2.68,4.65-5.32,9.25-5.9,10.28-1.18,2.1-5.39,3.22-7.25,4s-30.25,16-30.61,16,3.07,5.69,3.07,5.69,39.62-11.36,41.4-13,7.07-9,9.23-12.09,5.22-7.67,6.89-9.73c1.88-2.29,5.81-10.15.81-14.07C534.34,558.7,530.81,564.79,529.27,567.09Z" transform="translate(0)"></path><path class="cls-21" d="M540.13,577.51s-4.58,12.43-7.34,16.66a81,81,0,0,1-5.8,7.76l-1.46-4.29S537.39,581.33,540.13,577.51Z" transform="translate(0)"></path><path class="cls-22" d="M109.84,695.11s-3.39,8.72-5.24,10.24-6.09,4.23-5,5.56,8.54,1.52,10.32.73S112,708,114.35,707s.58-5.85.33-7.62c-.32-2.31-.94-2.64-.94-3.83S109.84,695.11,109.84,695.11Z" transform="translate(0)"></path><path class="cls-22" d="M142.24,692.86s.85,3.49,1.25,4.42a63.59,63.59,0,0,0,3.71,6.29c.53.59,8.13,3.9,7.14,5s-2.25,2.31-7.47,1.12S140,704.42,135.94,704s-2.87-4.9-1.28-6.88a34.52,34.52,0,0,0,3.25-5.49Z" transform="translate(0)"></path><path class="cls-23" d="M162.05,641.6c-.7,4.67-14.63,30.35-19.15,52.66,0,.18-.08.34-.13.5a27.23,27.23,0,0,1-6.4-1.61c.11-3.29,3.16-29.69,4.74-34.62,1.66-5.16,6.65-16.08,6.46-19.58s-2.46-5.85-4-7.57c-.87-1-6.34-9-10.82-15.78h0c-2.57-3.91-4.81-7.45-5.69-9.08a3.38,3.38,0,0,1-.38-.89c0-1.26-19.75-35.42,15.4-29.82,0,0,.9,5.76,1.09,6.85.13.7,3.08,7.68,5.61,14.31,1.38,3.63,2.63,7.16,3.23,9.5.7,2.78,1.93,7,3.18,11.12h0c1.75,5.71,3.54,11.21,4.06,12.3C160.16,631.78,162.74,636.94,162.05,641.6Z" transform="translate(0)"></path><path class="cls-23" d="M127.52,604.69s-2.7,11.62-4.19,16.29-4.5,14.85-4.63,17.53-.13,8.53-.33,10.91,0,12-.58,16.81-3.14,28.42-3.34,29.91a.44.44,0,0,1,0,.1,21.86,21.86,0,0,1-5.76.18.31.31,0,0,0,0-.08c-1.38-6.48-2.87-30.52-3-34.39s1-12.71.6-15.39-4.07-30.16-2.88-41.28,5-29.47,5-29.47S147.86,561.62,127.52,604.69Z" transform="translate(0)"></path><path class="cls-10" d="M145.22,586.28c-.1-1-1.13-7.93-2-12.41s-1.63-8.57-2.13-10.35l-.15-.6c-.33-1.32-1-4.27-1.77-7-.06-.19-.11-.39-.16-.58v-1c-.53-1.92.29-2.9.45-4.37a4.57,4.57,0,0,0-.08-1.49s0,0,0-.06a33.36,33.36,0,0,1-1-6c0-4.07-1.88-23.68-1.88-23.68s6.26,2.94,7.16,7.3,1.14,14,1.24,16,3.21,16.87,3.5,20.25a43.84,43.84,0,0,0,1.44,8.53c.7,2.28.1,13.89.3,15.67S145.32,587.28,145.22,586.28Z" transform="translate(0)"></path><path class="cls-24" d="M132.42,501.09s4.9-14.37-4.45-18.83-17.29,2-18.79,5.47-1.1,9.82.18,14.24,1.09,11.14-1.69,13.39-5.23,7.15-7.49,11.3,20-9.78,20-9.78Z" transform="translate(0)"></path><path class="cls-10" d="M124.08,484.71s9.73,2.88,8.34,16.38-7.74,12.8-8.34,12.9-8.13.59-10.51-15.78S124.08,484.71,124.08,484.71Z" transform="translate(0)"></path><path class="cls-25" d="M128.69,516.22s9.44,2.43,10.34,4,1,8.53,1.58,10.81,1.89,7.14,1,9.13-1.89,3.87-1.59,5.26,1.09,5.26.4,8.24a37.1,37.1,0,0,0-.2,13.4c.89,4.26,1.78,8,1.88,8.73s-33.7,0-33.7,0,2.74-9.53,3.73-11.71-.89-10.62-1.78-12.6-4.77-10-4.77-10.92c0,0-4.09-14-3.73-14.49s.14-2.55,4-5c3-1.86,11.84-4.07,14.32-4.46A84.44,84.44,0,0,1,128.69,516.22Z" transform="translate(0)"></path><path class="cls-10" d="M128.72,511.5s-.42,4.81.44,7.59-9.73,2.65-10.59.53.42-5.06-.75-9.51S128.72,511.5,128.72,511.5Z" transform="translate(0)"></path><path class="cls-24" d="M121.57,490.73s5.29,8.41,10.85,10.36c0,0,3-14.11-9.51-17.06s-10.57,14.24-9.64,18.83A37.23,37.23,0,0,1,121.57,490.73Z" transform="translate(0)"></path><path class="cls-20" d="M119.27,512.07a6.57,6.57,0,0,0,8.76.42s-.4,2.56-3.94,2.89S119.27,512.07,119.27,512.07Z" transform="translate(0)"></path><path class="cls-26" d="M132.78,615.61h0c-2.57-3.91-4.81-7.45-5.69-9.08h0s3.47-8.77,3.84-12.19S132.78,615.61,132.78,615.61Z" transform="translate(0)"></path><path class="cls-10" d="M116.86,517.38s4.37,7.55,9.22,8.76,4.7-6.16,3.28-9.74c0,0-.15-.39-4.9-.46A16,16,0,0,0,116.86,517.38Z" transform="translate(0)"></path><path class="cls-27" d="M106.52,572.64a25.7,25.7,0,1,1,29.76,20.87A25.69,25.69,0,0,1,106.52,572.64Z" transform="translate(0)"></path><path class="cls-27" d="M137.78,593.2l-8.87-50.53a25.7,25.7,0,0,1,8.87,50.53Z" transform="translate(0)"></path><path class="cls-27" d="M106.52,572.64a25.71,25.71,0,0,1,14.83-27.91L130,593.84A25.72,25.72,0,0,1,106.52,572.64Z" transform="translate(0)"></path><path class="cls-28" d="M112.31,567.69a19.53,19.53,0,1,1,19,20A19.52,19.52,0,0,1,112.31,567.69Z" transform="translate(0)"></path><path class="cls-29" d="M141.81,591.89a25.7,25.7,0,0,0-8.67-49.36Z" transform="translate(0)"></path><path class="cls-29" d="M130,593.84l-8.62-49.11a25.67,25.67,0,0,1,6-1.84c.51-.09,1-.16,1.52-.22l8.87,50.53c-.5.12-1,.22-1.5.31A25.41,25.41,0,0,1,130,593.84Z" transform="translate(0)"></path><path class="cls-10" d="M104.35,522.09a26,26,0,0,0-6.21,7.68c-2.68,5-8.83,13.69-10,16.57s-5.16,7.73-5.73,11.47.93,5,3.31,6.58S105,571.17,105,571.17s3-4.79,1.47-5.11c-2.75-.59-9.33-4.68-10.45-5.34s-4.2-3.26-2.71-4.45,11.6-16,13.68-18.86,5.86-9.93,4.47-13.5S106.81,520.74,104.35,522.09Z" transform="translate(0)"></path><path class="cls-10" d="M103,565.14a2.72,2.72,0,0,0,1.53.3c1.26-.22,2.46-1.74,4-.79s-.31,6.37-1.2,7.12-3.37.07-6.33-2.28S103,565.14,103,565.14Z" transform="translate(0)"></path><path class="cls-10" d="M108,564.4s2.72.41,5.68,1.2c2.6.7,5.47,2,5.54,2.52s-2.71-.33-5.34-.86c-2.42-.49-2,0-2,0s-.1-.14,2.42.88c2.72,1.09,5.38,2.47,5.38,3.12,0,.32-.18.44-1.24.2.58.26.58.45.49.68-.49,1.23-4.75.21-6.44-.2,1.3.32,2.21.69,1.39,1.25s-6.88-1-9.07-1.46C102.38,571.27,108,564.4,108,564.4Z" transform="translate(0)"></path><path class="cls-10" d="M153,558.49s3.92-.91,5.19,1a7.39,7.39,0,0,1,1,5.45c-.31,1.12-1.33,4-2.66,3.42C152.24,566.43,153,558.49,153,558.49Z" transform="translate(0)"></path><path class="cls-10" d="M156.86,558.54s-.55-2.66-1.61-2.2-.1,2.2-.1,2.2Z" transform="translate(0)"></path><path class="cls-30" d="M106,572c-.73,2.94-1.15,3-1.34,3h0c-.33,0-.5-.46-.59-.81a10.92,10.92,0,0,1-.31-2.94,31.88,31.88,0,0,1,.67-5.79,1,1,0,0,1,0-.12l.16,0h0l.16,0a31.91,31.91,0,0,0-.69,6,10.21,10.21,0,0,0,.3,2.69c.14.54.27.57.27.57s.15,0,.37-.56a13.3,13.3,0,0,0,.66-2.13Z" transform="translate(0)"></path><path class="cls-31" d="M131.94,447.5a12.42,12.42,0,0,1-6.85,1.93,12,12,0,0,1-9.32-4.09,14.13,14.13,0,0,1-3.31-7.9h-2.85v-2.25h2.62v-.69c0-.74,0-1.43.09-2.07h-2.71v-2.3h3a14.6,14.6,0,0,1,3.77-7.76,12.09,12.09,0,0,1,9.1-3.81,13,13,0,0,1,6.11,1.47l-.92,3a10.58,10.58,0,0,0-5.15-1.29,8,8,0,0,0-6.06,2.53,10.84,10.84,0,0,0-2.76,5.83h12.82v2.3H116.32c0,.6-.09,1.29-.09,1.93v.83h13.32v2.25h-13a11,11,0,0,0,2.53,6,8.69,8.69,0,0,0,6.47,2.67,11.89,11.89,0,0,0,5.61-1.52Z" transform="translate(0)"></path><g class="cls-32"><path class="cls-31" d="M134.23,582a10.1,10.1,0,0,1-5.79-.22,9.83,9.83,0,0,1-6.2-5.51,11.48,11.48,0,0,1-.58-6.94l-2.21-.72.57-1.74,2,.66c0-.18.11-.36.17-.54.18-.57.39-1.09.59-1.58l-2.1-.67.57-1.78,2.35.76a11.83,11.83,0,0,1,4.86-5.07,9.87,9.87,0,0,1,8-.68,10.76,10.76,0,0,1,4.37,2.67l-1.48,2.12a8.6,8.6,0,0,0-3.66-2.29,6.52,6.52,0,0,0-5.33.44,8.83,8.83,0,0,0-3.59,3.83l9.92,3.21-.57,1.78-10.25-3.31c-.18.45-.39,1-.55,1.47l-.21.64,10.32,3.33-.57,1.75-10.06-3.26a8.87,8.87,0,0,0,.45,5.29,7,7,0,0,0,4.35,3.69,9.66,9.66,0,0,0,4.72.23Z" transform="translate(0)"></path></g></g></g></svg> 